<svg version="1.1" id="Layer_1" xmlns="http://www.w3.org/2000/svg" xmlns:xlink="http://www.w3.org/1999/xlink" x="0px" y="0px"
	 width="100%" viewBox="0 0 192 192" enable-background="new 0 0 192 192" xml:space="preserve">
<path fill="#010101" opacity="1.000000" stroke="none" 
	d="
M98.000000,193.000000 
	C65.333336,193.000000 33.166672,193.000000 1.000004,193.000000 
	C1.000003,129.000000 1.000003,65.000015 1.000001,1.000013 
	C64.999992,1.000009 128.999985,1.000009 192.999969,1.000004 
	C192.999985,64.999985 192.999985,128.999969 193.000000,192.999969 
	C161.500000,193.000000 130.000000,193.000000 98.000000,193.000000 
M95.892830,111.052811 
	C95.956886,101.045135 96.020943,91.037453 96.997818,81.012405 
	C100.240120,81.012405 103.482422,81.012405 107.214592,81.012405 
	C107.214592,85.674324 107.214592,89.667480 107.214592,93.660629 
	C107.657837,93.919144 108.101074,94.177650 108.544319,94.436157 
	C109.497162,93.083023 110.206268,91.423767 111.448792,90.434464 
	C115.089531,87.535683 115.231918,83.776909 113.558533,80.212730 
	C111.449326,75.720276 105.780144,72.977531 102.120697,74.481148 
	C99.813683,75.429077 97.959785,77.479820 95.913864,78.216209 
	C96.106422,71.365067 91.642204,75.260155 88.881721,74.696480 
	C88.881721,87.457619 88.881721,99.737862 88.868362,112.768105 
	C91.145012,112.501305 93.421654,112.234512 95.892830,111.052811 
M139.974655,106.829201 
	C136.381027,106.829201 132.787399,106.829201 129.203094,106.829201 
	C129.203094,97.933632 129.203094,89.670769 129.203094,80.953285 
	C133.229218,80.953285 137.047546,80.666580 140.804474,81.024429 
	C145.718735,81.492516 147.580536,78.051323 150.685822,74.316284 
	C143.041077,74.316284 136.113983,73.426102 129.613190,74.704216 
	C126.515785,75.313187 122.457260,79.759476 121.936699,82.970528 
	C120.778610,90.114296 121.005219,97.641815 121.855217,104.873306 
	C122.194359,107.758621 125.177307,111.175194 127.883530,112.654701 
	C129.800705,113.702820 133.325317,112.086639 136.033585,111.313507 
	C137.798782,110.809593 139.386765,109.684868 140.909851,109.786346 
	C140.909851,115.067543 140.909851,120.348747 140.909851,126.125252 
	C136.873901,126.125252 133.086990,125.447731 129.703064,126.324875 
	C126.613739,127.125664 123.960892,129.610321 120.262314,131.875488 
	C122.141502,132.593735 122.420952,132.792816 122.701233,132.793976 
	C127.856041,132.815552 133.011063,132.835022 138.165802,132.810410 
	C143.661957,132.784195 148.316010,128.065170 148.329605,122.474243 
	C148.354691,112.164398 148.350235,101.854401 148.320938,91.544579 
	C148.316940,90.135971 148.099625,88.727974 147.998001,87.520859 
	C145.372559,87.520859 143.293503,87.520859 140.876907,87.520859 
	C140.876907,94.139244 140.876907,100.436493 139.974655,106.829201 
M65.894257,61.531757 
	C61.728050,61.531357 57.561695,61.508476 53.395676,61.536049 
	C47.785145,61.573177 43.135151,66.219017 43.120983,71.835175 
	C43.096176,81.667381 43.113091,91.499702 43.114159,101.331970 
	C43.115025,109.298233 47.176807,113.336029 55.187565,113.336899 
	C58.687187,113.337280 62.187084,113.364601 65.686363,113.330070 
	C70.847778,113.279152 75.629646,108.458878 75.647408,103.218170 
	C75.683006,92.719429 75.677849,82.220421 75.649048,71.721634 
	C75.635696,66.853897 71.923851,62.655666 65.894257,61.531757 
z"/>
<path fill="#EFEFEF" opacity="1.000000" stroke="none" 
	d="
M66.324387,61.532532 
	C71.923851,62.655666 75.635696,66.853897 75.649048,71.721634 
	C75.677849,82.220421 75.683006,92.719429 75.647408,103.218170 
	C75.629646,108.458878 70.847778,113.279152 65.686363,113.330070 
	C62.187084,113.364601 58.687187,113.337280 55.187565,113.336899 
	C47.176807,113.336029 43.115025,109.298233 43.114159,101.331970 
	C43.113091,91.499702 43.096176,81.667381 43.120983,71.835175 
	C43.135151,66.219017 47.785145,61.573177 53.395676,61.536049 
	C57.561695,61.508476 61.728050,61.531357 66.324387,61.532532 
M50.709393,89.498840 
	C50.709393,95.225899 50.709393,100.952965 50.709393,106.614449 
	C56.922005,106.614449 62.334896,106.614449 67.733414,106.614449 
	C67.733414,93.657730 67.733414,80.981804 67.733414,68.358383 
	C61.923676,68.358383 56.509052,68.358383 50.709377,68.358383 
	C50.709377,75.257027 50.709377,81.878258 50.709393,89.498840 
z"/>
<path fill="#EFEFEF" opacity="1.000000" stroke="none" 
	d="
M141.054138,108.838257 
	C139.386765,109.684868 137.798782,110.809593 136.033585,111.313507 
	C133.325317,112.086639 129.800705,113.702820 127.883530,112.654701 
	C125.177307,111.175194 122.194359,107.758621 121.855217,104.873306 
	C121.005219,97.641815 120.778610,90.114296 121.936699,82.970528 
	C122.457260,79.759476 126.515785,75.313187 129.613190,74.704216 
	C136.113983,73.426102 143.041077,74.316284 150.685822,74.316284 
	C147.580536,78.051323 145.718735,81.492516 140.804474,81.024429 
	C137.047546,80.666580 133.229218,80.953285 129.203094,80.953285 
	C129.203094,89.670769 129.203094,97.933632 129.203094,106.829201 
	C132.787399,106.829201 136.381027,106.829201 140.473938,107.130676 
	C141.000183,107.900864 141.027161,108.369560 141.054138,108.838257 
z"/>
<path fill="#F8F8F8" opacity="1.000000" stroke="none" 
	d="
M140.981995,109.312302 
	C141.027161,108.369560 141.000183,107.900864 140.925049,107.082947 
	C140.876907,100.436493 140.876907,94.139244 140.876907,87.520859 
	C143.293503,87.520859 145.372559,87.520859 147.998001,87.520859 
	C148.099625,88.727974 148.316940,90.135971 148.320938,91.544579 
	C148.350235,101.854401 148.354691,112.164398 148.329605,122.474243 
	C148.316010,128.065170 143.661957,132.784195 138.165802,132.810410 
	C133.011063,132.835022 127.856041,132.815552 122.701233,132.793976 
	C122.420952,132.792816 122.141502,132.593735 120.262314,131.875488 
	C123.960892,129.610321 126.613739,127.125664 129.703064,126.324875 
	C133.086990,125.447731 136.873901,126.125252 140.909851,126.125252 
	C140.909851,120.348747 140.909851,115.067543 140.981995,109.312302 
z"/>
<path fill="#FCFCFC" opacity="1.000000" stroke="none" 
	d="
M96.084999,81.029778 
	C96.020943,91.037453 95.956886,101.045135 95.372101,111.512199 
	C92.861496,111.987099 90.871605,112.002602 88.881721,112.018105 
	C88.881721,99.737862 88.881721,87.457619 88.881721,74.696480 
	C91.642204,75.260155 96.106422,71.365067 95.674240,78.766571 
	C95.651405,79.887886 95.868202,80.458832 96.084999,81.029778 
z"/>
<path fill="#E7E7E7" opacity="1.000000" stroke="none" 
	d="
M96.541405,81.021088 
	C95.868202,80.458832 95.651405,79.887886 95.668625,79.176392 
	C97.959785,77.479820 99.813683,75.429077 102.120697,74.481148 
	C105.780144,72.977531 111.449326,75.720276 113.558533,80.212730 
	C115.231918,83.776909 115.089531,87.535683 111.448792,90.434464 
	C110.206268,91.423767 109.497162,93.083023 108.544319,94.436157 
	C108.101074,94.177650 107.657837,93.919144 107.214592,93.660629 
	C107.214592,89.667480 107.214592,85.674324 107.214592,81.012405 
	C103.482422,81.012405 100.240120,81.012405 96.541405,81.021088 
z"/>
<path fill="#E7E7E7" opacity="1.000000" stroke="none" 
	d="
M88.875046,112.393105 
	C90.871605,112.002602 92.861496,111.987099 95.274841,111.969650 
	C93.421654,112.234512 91.145012,112.501305 88.875046,112.393105 
z"/>
<path fill="#040404" opacity="1.000000" stroke="none" 
	d="
M50.709385,88.999161 
	C50.709377,81.878258 50.709377,75.257027 50.709377,68.358383 
	C56.509052,68.358383 61.923676,68.358383 67.733414,68.358383 
	C67.733414,80.981804 67.733414,93.657730 67.733414,106.614449 
	C62.334896,106.614449 56.922005,106.614449 50.709393,106.614449 
	C50.709393,100.952965 50.709393,95.225899 50.709385,88.999161 
z"/>
</svg>